<?xml version="1.0" standalone="no"?><svg xmlns="http://www.w3.org/2000/svg" viewBox="0 0 1440 320"><path fill="#0099ff" fill-opacity="1" d="M0,64L17.1,69.3C34.3,75,69,85,103,90.7C137.1,96,171,96,206,117.3C240,139,274,181,309,197.3C342.9,213,377,203,411,181.3C445.7,160,480,128,514,133.3C548.6,139,583,181,617,218.7C651.4,256,686,288,720,304C754.3,320,789,320,823,288C857.1,256,891,192,926,181.3C960,171,994,213,1029,218.7C1062.9,224,1097,192,1131,149.3C1165.7,107,1200,53,1234,69.3C1268.6,85,1303,171,1337,224C1371.4,277,1406,299,1423,309.3L1440,320L1440,320L1422.9,320C1405.7,320,1371,320,1337,320C1302.9,320,1269,320,1234,320C1200,320,1166,320,1131,320C1097.1,320,1063,320,1029,320C994.3,320,960,320,926,320C891.4,320,857,320,823,320C788.6,320,754,320,720,320C685.7,320,651,320,617,320C582.9,320,549,320,514,320C480,320,446,320,411,320C377.1,320,343,320,309,320C274.3,320,240,320,206,320C171.4,320,137,320,103,320C68.6,320,34,320,17,320L0,320Z"></path></svg>