<?xml version="1.0" standalone="no"?><svg xmlns="http://www.w3.org/2000/svg" viewBox="0 0 1440 320"><path fill="#0099ff" fill-opacity="1" d="M0,64L10.9,80C21.8,96,44,128,65,165.3C87.3,203,109,245,131,224C152.7,203,175,117,196,112C218.2,107,240,181,262,197.3C283.6,213,305,171,327,176C349.1,181,371,235,393,224C414.5,213,436,139,458,128C480,117,502,171,524,213.3C545.5,256,567,288,589,261.3C610.9,235,633,149,655,106.7C676.4,64,698,64,720,106.7C741.8,149,764,235,785,266.7C807.3,299,829,277,851,234.7C872.7,192,895,128,916,133.3C938.2,139,960,213,982,250.7C1003.6,288,1025,288,1047,272C1069.1,256,1091,224,1113,213.3C1134.5,203,1156,213,1178,202.7C1200,192,1222,160,1244,170.7C1265.5,181,1287,235,1309,245.3C1330.9,256,1353,224,1375,229.3C1396.4,235,1418,277,1429,298.7L1440,320L1440,0L1429.1,0C1418.2,0,1396,0,1375,0C1352.7,0,1331,0,1309,0C1287.3,0,1265,0,1244,0C1221.8,0,1200,0,1178,0C1156.4,0,1135,0,1113,0C1090.9,0,1069,0,1047,0C1025.5,0,1004,0,982,0C960,0,938,0,916,0C894.5,0,873,0,851,0C829.1,0,807,0,785,0C763.6,0,742,0,720,0C698.2,0,676,0,655,0C632.7,0,611,0,589,0C567.3,0,545,0,524,0C501.8,0,480,0,458,0C436.4,0,415,0,393,0C370.9,0,349,0,327,0C305.5,0,284,0,262,0C240,0,218,0,196,0C174.5,0,153,0,131,0C109.1,0,87,0,65,0C43.6,0,22,0,11,0L0,0Z"></path></svg>