<?xml version="1.0" standalone="no"?><svg xmlns="http://www.w3.org/2000/svg" viewBox="0 0 1440 320"><path fill="#0099ff" fill-opacity="1" d="M0,32L16,42.7C32,53,64,75,96,74.7C128,75,160,53,192,80C224,107,256,181,288,181.3C320,181,352,107,384,112C416,117,448,203,480,224C512,245,544,203,576,181.3C608,160,640,160,672,138.7C704,117,736,75,768,64C800,53,832,75,864,101.3C896,128,928,160,960,170.7C992,181,1024,171,1056,149.3C1088,128,1120,96,1152,106.7C1184,117,1216,171,1248,208C1280,245,1312,267,1344,272C1376,277,1408,267,1424,261.3L1440,256L1440,320L1424,320C1408,320,1376,320,1344,320C1312,320,1280,320,1248,320C1216,320,1184,320,1152,320C1120,320,1088,320,1056,320C1024,320,992,320,960,320C928,320,896,320,864,320C832,320,800,320,768,320C736,320,704,320,672,320C640,320,608,320,576,320C544,320,512,320,480,320C448,320,416,320,384,320C352,320,320,320,288,320C256,320,224,320,192,320C160,320,128,320,96,320C64,320,32,320,16,320L0,320Z"></path></svg>